<mxfile host="app.diagrams.net" agent="Mozilla/5.0 (Windows NT 10.0; Win64; x64) AppleWebKit/537.36 (KHTML, like Gecko) Chrome/132.0.0.0 Safari/537.36" version="26.2.14">
  <diagram name="Page-1" id="Ew_ltg31gPGaPztfmx8g">
    <mxGraphModel dx="2469" dy="908" grid="1" gridSize="10" guides="1" tooltips="1" connect="1" arrows="1" fold="1" page="1" pageScale="1" pageWidth="850" pageHeight="1100" math="0" shadow="0">
      <root>
        <mxCell id="0" />
        <mxCell id="1" parent="0" />
        <mxCell id="ouBpeHVBCJ--FHdpR-fc-1" value="" style="ellipse;whiteSpace=wrap;html=1;" parent="1" vertex="1">
          <mxGeometry x="80" y="310" width="90" height="220" as="geometry" />
        </mxCell>
        <mxCell id="ouBpeHVBCJ--FHdpR-fc-12" value="" style="ellipse;whiteSpace=wrap;html=1;aspect=fixed;" parent="1" vertex="1">
          <mxGeometry x="125" y="380" width="10" height="10" as="geometry" />
        </mxCell>
        <mxCell id="ouBpeHVBCJ--FHdpR-fc-13" value="" style="ellipse;whiteSpace=wrap;html=1;aspect=fixed;" parent="1" vertex="1">
          <mxGeometry x="125" y="420" width="10" height="10" as="geometry" />
        </mxCell>
        <mxCell id="ouBpeHVBCJ--FHdpR-fc-16" value="" style="ellipse;whiteSpace=wrap;html=1;aspect=fixed;" parent="1" vertex="1">
          <mxGeometry x="125" y="460" width="10" height="10" as="geometry" />
        </mxCell>
        <mxCell id="ouBpeHVBCJ--FHdpR-fc-17" value="" style="endArrow=classic;html=1;rounded=0;entryX=0;entryY=0;entryDx=0;entryDy=0;" parent="1" target="ouBpeHVBCJ--FHdpR-fc-12" edge="1">
          <mxGeometry width="50" height="50" relative="1" as="geometry">
            <mxPoint x="40" y="381" as="sourcePoint" />
            <mxPoint x="280" y="460" as="targetPoint" />
          </mxGeometry>
        </mxCell>
        <mxCell id="ouBpeHVBCJ--FHdpR-fc-19" value="" style="endArrow=classic;html=1;rounded=0;entryX=0;entryY=0;entryDx=0;entryDy=0;" parent="1" edge="1">
          <mxGeometry width="50" height="50" relative="1" as="geometry">
            <mxPoint x="40" y="424.86956521739125" as="sourcePoint" />
            <mxPoint x="125" y="424.5" as="targetPoint" />
          </mxGeometry>
        </mxCell>
        <mxCell id="ouBpeHVBCJ--FHdpR-fc-21" value="" style="endArrow=classic;html=1;rounded=0;entryX=0;entryY=0;entryDx=0;entryDy=0;" parent="1" edge="1">
          <mxGeometry width="50" height="50" relative="1" as="geometry">
            <mxPoint x="39" y="464.5" as="sourcePoint" />
            <mxPoint x="125" y="464.5" as="targetPoint" />
          </mxGeometry>
        </mxCell>
        <mxCell id="ouBpeHVBCJ--FHdpR-fc-22" value="" style="ellipse;whiteSpace=wrap;html=1;" parent="1" vertex="1">
          <mxGeometry x="631" y="310" width="90" height="220" as="geometry" />
        </mxCell>
        <mxCell id="ouBpeHVBCJ--FHdpR-fc-23" value="" style="ellipse;whiteSpace=wrap;html=1;aspect=fixed;" parent="1" vertex="1">
          <mxGeometry x="676" y="380" width="10" height="10" as="geometry" />
        </mxCell>
        <mxCell id="ouBpeHVBCJ--FHdpR-fc-24" value="" style="ellipse;whiteSpace=wrap;html=1;aspect=fixed;" parent="1" vertex="1">
          <mxGeometry x="676" y="420" width="10" height="10" as="geometry" />
        </mxCell>
        <mxCell id="ouBpeHVBCJ--FHdpR-fc-25" value="" style="ellipse;whiteSpace=wrap;html=1;aspect=fixed;" parent="1" vertex="1">
          <mxGeometry x="676" y="460" width="10" height="10" as="geometry" />
        </mxCell>
        <mxCell id="ouBpeHVBCJ--FHdpR-fc-27" value="" style="endArrow=classic;html=1;rounded=0;entryX=0;entryY=0;entryDx=0;entryDy=0;" parent="1" edge="1">
          <mxGeometry width="50" height="50" relative="1" as="geometry">
            <mxPoint x="686" y="384.5" as="sourcePoint" />
            <mxPoint x="772" y="384.5" as="targetPoint" />
          </mxGeometry>
        </mxCell>
        <mxCell id="ouBpeHVBCJ--FHdpR-fc-28" value="" style="endArrow=classic;html=1;rounded=0;entryX=0;entryY=0;entryDx=0;entryDy=0;" parent="1" edge="1">
          <mxGeometry width="50" height="50" relative="1" as="geometry">
            <mxPoint x="686" y="464.5" as="sourcePoint" />
            <mxPoint x="772" y="464.5" as="targetPoint" />
          </mxGeometry>
        </mxCell>
        <mxCell id="ouBpeHVBCJ--FHdpR-fc-29" value="" style="endArrow=classic;html=1;rounded=0;entryX=0;entryY=0;entryDx=0;entryDy=0;" parent="1" edge="1">
          <mxGeometry width="50" height="50" relative="1" as="geometry">
            <mxPoint x="686" y="424.5" as="sourcePoint" />
            <mxPoint x="772" y="424.5" as="targetPoint" />
          </mxGeometry>
        </mxCell>
        <mxCell id="ouBpeHVBCJ--FHdpR-fc-30" value="" style="ellipse;whiteSpace=wrap;html=1;" parent="1" vertex="1">
          <mxGeometry x="230" y="235" width="120" height="380" as="geometry" />
        </mxCell>
        <mxCell id="ouBpeHVBCJ--FHdpR-fc-32" value="" style="ellipse;whiteSpace=wrap;html=1;aspect=fixed;" parent="1" vertex="1">
          <mxGeometry x="285" y="280" width="10" height="10" as="geometry" />
        </mxCell>
        <mxCell id="ouBpeHVBCJ--FHdpR-fc-33" value="" style="ellipse;whiteSpace=wrap;html=1;aspect=fixed;" parent="1" vertex="1">
          <mxGeometry x="285" y="320" width="10" height="10" as="geometry" />
        </mxCell>
        <mxCell id="ouBpeHVBCJ--FHdpR-fc-34" value="" style="ellipse;whiteSpace=wrap;html=1;aspect=fixed;" parent="1" vertex="1">
          <mxGeometry x="285" y="360" width="10" height="10" as="geometry" />
        </mxCell>
        <mxCell id="ouBpeHVBCJ--FHdpR-fc-35" value="" style="ellipse;whiteSpace=wrap;html=1;aspect=fixed;" parent="1" vertex="1">
          <mxGeometry x="285" y="440" width="10" height="10" as="geometry" />
        </mxCell>
        <mxCell id="ouBpeHVBCJ--FHdpR-fc-36" value="" style="ellipse;whiteSpace=wrap;html=1;aspect=fixed;" parent="1" vertex="1">
          <mxGeometry x="285" y="400" width="10" height="10" as="geometry" />
        </mxCell>
        <mxCell id="ouBpeHVBCJ--FHdpR-fc-37" value="" style="ellipse;whiteSpace=wrap;html=1;aspect=fixed;" parent="1" vertex="1">
          <mxGeometry x="285" y="480" width="10" height="10" as="geometry" />
        </mxCell>
        <mxCell id="ouBpeHVBCJ--FHdpR-fc-38" value="" style="ellipse;whiteSpace=wrap;html=1;aspect=fixed;" parent="1" vertex="1">
          <mxGeometry x="285" y="520" width="10" height="10" as="geometry" />
        </mxCell>
        <mxCell id="ouBpeHVBCJ--FHdpR-fc-47" value="" style="ellipse;whiteSpace=wrap;html=1;" parent="1" vertex="1">
          <mxGeometry x="450" y="235" width="120" height="380" as="geometry" />
        </mxCell>
        <mxCell id="ouBpeHVBCJ--FHdpR-fc-48" value="" style="ellipse;whiteSpace=wrap;html=1;aspect=fixed;" parent="1" vertex="1">
          <mxGeometry x="505" y="280" width="10" height="10" as="geometry" />
        </mxCell>
        <mxCell id="ouBpeHVBCJ--FHdpR-fc-49" value="" style="ellipse;whiteSpace=wrap;html=1;aspect=fixed;" parent="1" vertex="1">
          <mxGeometry x="505" y="320" width="10" height="10" as="geometry" />
        </mxCell>
        <mxCell id="ouBpeHVBCJ--FHdpR-fc-50" value="" style="ellipse;whiteSpace=wrap;html=1;aspect=fixed;" parent="1" vertex="1">
          <mxGeometry x="505" y="360" width="10" height="10" as="geometry" />
        </mxCell>
        <mxCell id="ouBpeHVBCJ--FHdpR-fc-51" value="" style="ellipse;whiteSpace=wrap;html=1;aspect=fixed;" parent="1" vertex="1">
          <mxGeometry x="505" y="440" width="10" height="10" as="geometry" />
        </mxCell>
        <mxCell id="ouBpeHVBCJ--FHdpR-fc-52" value="" style="ellipse;whiteSpace=wrap;html=1;aspect=fixed;" parent="1" vertex="1">
          <mxGeometry x="505" y="400" width="10" height="10" as="geometry" />
        </mxCell>
        <mxCell id="ouBpeHVBCJ--FHdpR-fc-53" value="" style="ellipse;whiteSpace=wrap;html=1;aspect=fixed;" parent="1" vertex="1">
          <mxGeometry x="505" y="480" width="10" height="10" as="geometry" />
        </mxCell>
        <mxCell id="ouBpeHVBCJ--FHdpR-fc-54" value="" style="ellipse;whiteSpace=wrap;html=1;aspect=fixed;" parent="1" vertex="1">
          <mxGeometry x="505" y="520" width="10" height="10" as="geometry" />
        </mxCell>
        <mxCell id="ouBpeHVBCJ--FHdpR-fc-56" value="" style="endArrow=classic;html=1;rounded=0;exitX=1;exitY=0.5;exitDx=0;exitDy=0;entryX=0;entryY=1;entryDx=0;entryDy=0;" parent="1" source="ouBpeHVBCJ--FHdpR-fc-12" target="ouBpeHVBCJ--FHdpR-fc-32" edge="1">
          <mxGeometry width="50" height="50" relative="1" as="geometry">
            <mxPoint x="400" y="490" as="sourcePoint" />
            <mxPoint x="450" y="440" as="targetPoint" />
          </mxGeometry>
        </mxCell>
        <mxCell id="ouBpeHVBCJ--FHdpR-fc-57" value="" style="endArrow=classic;html=1;rounded=0;exitX=0;exitY=0.5;exitDx=0;exitDy=0;entryX=0;entryY=1;entryDx=0;entryDy=0;" parent="1" source="ouBpeHVBCJ--FHdpR-fc-12" target="ouBpeHVBCJ--FHdpR-fc-33" edge="1">
          <mxGeometry width="50" height="50" relative="1" as="geometry">
            <mxPoint x="400" y="490" as="sourcePoint" />
            <mxPoint x="450" y="440" as="targetPoint" />
          </mxGeometry>
        </mxCell>
        <mxCell id="ouBpeHVBCJ--FHdpR-fc-58" value="" style="endArrow=classic;html=1;rounded=0;entryX=0;entryY=0;entryDx=0;entryDy=0;" parent="1" target="ouBpeHVBCJ--FHdpR-fc-34" edge="1">
          <mxGeometry width="50" height="50" relative="1" as="geometry">
            <mxPoint x="130" y="390" as="sourcePoint" />
            <mxPoint x="450" y="440" as="targetPoint" />
          </mxGeometry>
        </mxCell>
        <mxCell id="ouBpeHVBCJ--FHdpR-fc-59" value="" style="endArrow=classic;html=1;rounded=0;entryX=0;entryY=0.5;entryDx=0;entryDy=0;" parent="1" target="ouBpeHVBCJ--FHdpR-fc-38" edge="1">
          <mxGeometry width="50" height="50" relative="1" as="geometry">
            <mxPoint x="130" y="390" as="sourcePoint" />
            <mxPoint x="450" y="440" as="targetPoint" />
          </mxGeometry>
        </mxCell>
        <mxCell id="ouBpeHVBCJ--FHdpR-fc-60" value="" style="endArrow=classic;html=1;rounded=0;exitX=0;exitY=1;exitDx=0;exitDy=0;entryX=0;entryY=0.5;entryDx=0;entryDy=0;" parent="1" source="ouBpeHVBCJ--FHdpR-fc-13" target="ouBpeHVBCJ--FHdpR-fc-32" edge="1">
          <mxGeometry width="50" height="50" relative="1" as="geometry">
            <mxPoint x="400" y="490" as="sourcePoint" />
            <mxPoint x="450" y="440" as="targetPoint" />
          </mxGeometry>
        </mxCell>
        <mxCell id="ouBpeHVBCJ--FHdpR-fc-61" value="" style="endArrow=classic;html=1;rounded=0;exitX=0;exitY=0.5;exitDx=0;exitDy=0;entryX=0;entryY=0;entryDx=0;entryDy=0;" parent="1" source="ouBpeHVBCJ--FHdpR-fc-16" target="ouBpeHVBCJ--FHdpR-fc-38" edge="1">
          <mxGeometry width="50" height="50" relative="1" as="geometry">
            <mxPoint x="400" y="490" as="sourcePoint" />
            <mxPoint x="450" y="440" as="targetPoint" />
          </mxGeometry>
        </mxCell>
        <mxCell id="ouBpeHVBCJ--FHdpR-fc-62" value="" style="endArrow=classic;html=1;rounded=0;exitX=0;exitY=1;exitDx=0;exitDy=0;entryX=1;entryY=1;entryDx=0;entryDy=0;" parent="1" source="ouBpeHVBCJ--FHdpR-fc-13" target="ouBpeHVBCJ--FHdpR-fc-36" edge="1">
          <mxGeometry width="50" height="50" relative="1" as="geometry">
            <mxPoint x="450" y="520" as="sourcePoint" />
            <mxPoint x="500" y="470" as="targetPoint" />
          </mxGeometry>
        </mxCell>
        <mxCell id="ouBpeHVBCJ--FHdpR-fc-63" value="" style="endArrow=classic;html=1;rounded=0;entryX=0.5;entryY=1;entryDx=0;entryDy=0;" parent="1" target="ouBpeHVBCJ--FHdpR-fc-35" edge="1">
          <mxGeometry width="50" height="50" relative="1" as="geometry">
            <mxPoint x="130" y="420" as="sourcePoint" />
            <mxPoint x="500" y="470" as="targetPoint" />
          </mxGeometry>
        </mxCell>
        <mxCell id="ouBpeHVBCJ--FHdpR-fc-64" value="" style="endArrow=classic;html=1;rounded=0;entryX=0.5;entryY=1;entryDx=0;entryDy=0;" parent="1" target="ouBpeHVBCJ--FHdpR-fc-37" edge="1">
          <mxGeometry width="50" height="50" relative="1" as="geometry">
            <mxPoint x="130" y="470" as="sourcePoint" />
            <mxPoint x="500" y="470" as="targetPoint" />
          </mxGeometry>
        </mxCell>
        <mxCell id="ouBpeHVBCJ--FHdpR-fc-65" value="" style="html=1;points=[[0,0,0,0,5],[0,1,0,0,-5],[1,0,0,0,5],[1,1,0,0,-5]];perimeter=orthogonalPerimeter;outlineConnect=0;targetShapes=umlLifeline;portConstraint=eastwest;newEdgeStyle={&quot;curved&quot;:0,&quot;rounded&quot;:0};" parent="1" vertex="1">
          <mxGeometry x="390" y="200" width="10" height="460" as="geometry" />
        </mxCell>
        <mxCell id="ouBpeHVBCJ--FHdpR-fc-66" value="" style="endArrow=classic;html=1;rounded=0;exitX=0.5;exitY=0;exitDx=0;exitDy=0;entryX=0;entryY=0.5;entryDx=0;entryDy=0;" parent="1" source="ouBpeHVBCJ--FHdpR-fc-32" target="ouBpeHVBCJ--FHdpR-fc-48" edge="1">
          <mxGeometry width="50" height="50" relative="1" as="geometry">
            <mxPoint x="450" y="520" as="sourcePoint" />
            <mxPoint x="500" y="470" as="targetPoint" />
          </mxGeometry>
        </mxCell>
        <mxCell id="ouBpeHVBCJ--FHdpR-fc-72" value="" style="endArrow=classic;html=1;rounded=0;exitX=1;exitY=0.5;exitDx=0;exitDy=0;entryX=1;entryY=1;entryDx=0;entryDy=0;" parent="1" source="ouBpeHVBCJ--FHdpR-fc-37" target="ouBpeHVBCJ--FHdpR-fc-53" edge="1">
          <mxGeometry width="50" height="50" relative="1" as="geometry">
            <mxPoint x="450" y="520" as="sourcePoint" />
            <mxPoint x="500" y="470" as="targetPoint" />
          </mxGeometry>
        </mxCell>
        <mxCell id="ouBpeHVBCJ--FHdpR-fc-73" value="" style="endArrow=classic;html=1;rounded=0;exitX=0.583;exitY=0.776;exitDx=0;exitDy=0;exitPerimeter=0;entryX=0;entryY=0.5;entryDx=0;entryDy=0;" parent="1" source="ouBpeHVBCJ--FHdpR-fc-30" target="ouBpeHVBCJ--FHdpR-fc-54" edge="1">
          <mxGeometry width="50" height="50" relative="1" as="geometry">
            <mxPoint x="450" y="520" as="sourcePoint" />
            <mxPoint x="500" y="470" as="targetPoint" />
          </mxGeometry>
        </mxCell>
        <mxCell id="ItcHLo57ZzNqNrVCIJxk-1" value="" style="endArrow=classic;html=1;rounded=0;exitX=1;exitY=0;exitDx=0;exitDy=0;entryX=0;entryY=0.5;entryDx=0;entryDy=0;" edge="1" parent="1" source="ouBpeHVBCJ--FHdpR-fc-35" target="ouBpeHVBCJ--FHdpR-fc-51">
          <mxGeometry width="50" height="50" relative="1" as="geometry">
            <mxPoint x="400" y="490" as="sourcePoint" />
            <mxPoint x="450" y="440" as="targetPoint" />
          </mxGeometry>
        </mxCell>
        <mxCell id="ItcHLo57ZzNqNrVCIJxk-2" value="" style="endArrow=classic;html=1;rounded=0;exitX=1;exitY=1;exitDx=0;exitDy=0;entryX=0;entryY=0.5;entryDx=0;entryDy=0;" edge="1" parent="1" source="ouBpeHVBCJ--FHdpR-fc-36" target="ouBpeHVBCJ--FHdpR-fc-52">
          <mxGeometry width="50" height="50" relative="1" as="geometry">
            <mxPoint x="400" y="490" as="sourcePoint" />
            <mxPoint x="450" y="440" as="targetPoint" />
          </mxGeometry>
        </mxCell>
        <mxCell id="ItcHLo57ZzNqNrVCIJxk-3" value="" style="endArrow=classic;html=1;rounded=0;exitX=1;exitY=0.5;exitDx=0;exitDy=0;entryX=0;entryY=0;entryDx=0;entryDy=0;" edge="1" parent="1" source="ouBpeHVBCJ--FHdpR-fc-34" target="ouBpeHVBCJ--FHdpR-fc-50">
          <mxGeometry width="50" height="50" relative="1" as="geometry">
            <mxPoint x="400" y="490" as="sourcePoint" />
            <mxPoint x="450" y="440" as="targetPoint" />
          </mxGeometry>
        </mxCell>
        <mxCell id="ItcHLo57ZzNqNrVCIJxk-4" value="" style="endArrow=classic;html=1;rounded=0;exitX=0.5;exitY=1;exitDx=0;exitDy=0;entryX=0;entryY=0;entryDx=0;entryDy=0;" edge="1" parent="1" source="ouBpeHVBCJ--FHdpR-fc-33" target="ouBpeHVBCJ--FHdpR-fc-49">
          <mxGeometry width="50" height="50" relative="1" as="geometry">
            <mxPoint x="400" y="490" as="sourcePoint" />
            <mxPoint x="450" y="440" as="targetPoint" />
          </mxGeometry>
        </mxCell>
        <mxCell id="ItcHLo57ZzNqNrVCIJxk-5" value="" style="endArrow=classic;html=1;rounded=0;exitX=1;exitY=0.5;exitDx=0;exitDy=0;entryX=0.5;entryY=0;entryDx=0;entryDy=0;" edge="1" parent="1" source="ouBpeHVBCJ--FHdpR-fc-48" target="ouBpeHVBCJ--FHdpR-fc-23">
          <mxGeometry width="50" height="50" relative="1" as="geometry">
            <mxPoint x="400" y="490" as="sourcePoint" />
            <mxPoint x="450" y="440" as="targetPoint" />
          </mxGeometry>
        </mxCell>
        <mxCell id="ItcHLo57ZzNqNrVCIJxk-6" value="" style="endArrow=classic;html=1;rounded=0;exitX=1;exitY=0.5;exitDx=0;exitDy=0;entryX=0.5;entryY=0;entryDx=0;entryDy=0;" edge="1" parent="1" source="ouBpeHVBCJ--FHdpR-fc-49" target="ouBpeHVBCJ--FHdpR-fc-23">
          <mxGeometry width="50" height="50" relative="1" as="geometry">
            <mxPoint x="400" y="490" as="sourcePoint" />
            <mxPoint x="450" y="440" as="targetPoint" />
          </mxGeometry>
        </mxCell>
        <mxCell id="ItcHLo57ZzNqNrVCIJxk-7" value="" style="endArrow=classic;html=1;rounded=0;exitX=1;exitY=0;exitDx=0;exitDy=0;entryX=0.5;entryY=1;entryDx=0;entryDy=0;" edge="1" parent="1" source="ouBpeHVBCJ--FHdpR-fc-54" target="ouBpeHVBCJ--FHdpR-fc-25">
          <mxGeometry width="50" height="50" relative="1" as="geometry">
            <mxPoint x="400" y="490" as="sourcePoint" />
            <mxPoint x="450" y="440" as="targetPoint" />
          </mxGeometry>
        </mxCell>
        <mxCell id="ItcHLo57ZzNqNrVCIJxk-8" value="" style="endArrow=classic;html=1;rounded=0;exitX=1;exitY=1;exitDx=0;exitDy=0;entryX=0;entryY=0.5;entryDx=0;entryDy=0;" edge="1" parent="1" source="ouBpeHVBCJ--FHdpR-fc-53" target="ouBpeHVBCJ--FHdpR-fc-25">
          <mxGeometry width="50" height="50" relative="1" as="geometry">
            <mxPoint x="400" y="490" as="sourcePoint" />
            <mxPoint x="450" y="440" as="targetPoint" />
          </mxGeometry>
        </mxCell>
        <mxCell id="ItcHLo57ZzNqNrVCIJxk-9" value="Input&lt;div&gt;Layer&lt;/div&gt;" style="text;html=1;align=center;verticalAlign=middle;whiteSpace=wrap;rounded=0;" vertex="1" parent="1">
          <mxGeometry x="95" y="570" width="60" height="30" as="geometry" />
        </mxCell>
        <mxCell id="ItcHLo57ZzNqNrVCIJxk-10" value="Output&lt;br&gt;&lt;div&gt;Layer&lt;/div&gt;" style="text;html=1;align=center;verticalAlign=middle;whiteSpace=wrap;rounded=0;" vertex="1" parent="1">
          <mxGeometry x="646" y="570" width="60" height="30" as="geometry" />
        </mxCell>
        <mxCell id="ItcHLo57ZzNqNrVCIJxk-12" value="" style="endArrow=classic;html=1;rounded=0;exitX=1;exitY=1;exitDx=0;exitDy=0;entryX=0;entryY=0.5;entryDx=0;entryDy=0;" edge="1" parent="1" source="ouBpeHVBCJ--FHdpR-fc-51" target="ouBpeHVBCJ--FHdpR-fc-24">
          <mxGeometry width="50" height="50" relative="1" as="geometry">
            <mxPoint x="400" y="490" as="sourcePoint" />
            <mxPoint x="450" y="440" as="targetPoint" />
          </mxGeometry>
        </mxCell>
        <mxCell id="ItcHLo57ZzNqNrVCIJxk-13" value="" style="endArrow=classic;html=1;rounded=0;exitX=0;exitY=0.5;exitDx=0;exitDy=0;entryX=0;entryY=0.5;entryDx=0;entryDy=0;" edge="1" parent="1" source="ouBpeHVBCJ--FHdpR-fc-52" target="ouBpeHVBCJ--FHdpR-fc-24">
          <mxGeometry width="50" height="50" relative="1" as="geometry">
            <mxPoint x="400" y="490" as="sourcePoint" />
            <mxPoint x="450" y="440" as="targetPoint" />
          </mxGeometry>
        </mxCell>
        <mxCell id="ItcHLo57ZzNqNrVCIJxk-14" value="" style="endArrow=classic;html=1;rounded=0;exitX=1;exitY=0.5;exitDx=0;exitDy=0;entryX=0;entryY=0.5;entryDx=0;entryDy=0;" edge="1" parent="1" source="ouBpeHVBCJ--FHdpR-fc-50" target="ouBpeHVBCJ--FHdpR-fc-23">
          <mxGeometry width="50" height="50" relative="1" as="geometry">
            <mxPoint x="400" y="490" as="sourcePoint" />
            <mxPoint x="450" y="440" as="targetPoint" />
          </mxGeometry>
        </mxCell>
        <mxCell id="ItcHLo57ZzNqNrVCIJxk-15" value="1 A" style="text;html=1;align=center;verticalAlign=middle;whiteSpace=wrap;rounded=0;" vertex="1" parent="1">
          <mxGeometry x="-20" y="370" width="60" height="30" as="geometry" />
        </mxCell>
        <mxCell id="ItcHLo57ZzNqNrVCIJxk-16" value="1 A" style="text;html=1;align=center;verticalAlign=middle;whiteSpace=wrap;rounded=0;" vertex="1" parent="1">
          <mxGeometry x="760" y="370" width="60" height="30" as="geometry" />
        </mxCell>
        <mxCell id="ItcHLo57ZzNqNrVCIJxk-20" value="2 D" style="text;html=1;align=center;verticalAlign=middle;whiteSpace=wrap;rounded=0;" vertex="1" parent="1">
          <mxGeometry x="-20" y="410" width="60" height="30" as="geometry" />
        </mxCell>
        <mxCell id="ItcHLo57ZzNqNrVCIJxk-21" value="2 D" style="text;html=1;align=center;verticalAlign=middle;whiteSpace=wrap;rounded=0;" vertex="1" parent="1">
          <mxGeometry x="760" y="410" width="60" height="30" as="geometry" />
        </mxCell>
        <mxCell id="ItcHLo57ZzNqNrVCIJxk-22" value="3 C" style="text;html=1;align=center;verticalAlign=middle;whiteSpace=wrap;rounded=0;" vertex="1" parent="1">
          <mxGeometry x="760" y="450" width="60" height="30" as="geometry" />
        </mxCell>
        <mxCell id="ItcHLo57ZzNqNrVCIJxk-23" value="3 C" style="text;html=1;align=center;verticalAlign=middle;whiteSpace=wrap;rounded=0;" vertex="1" parent="1">
          <mxGeometry x="-20" y="450" width="60" height="30" as="geometry" />
        </mxCell>
      </root>
    </mxGraphModel>
  </diagram>
</mxfile>
